<svg width="456" height="362" viewBox="0 0 456 362" fill="none" xmlns="http://www.w3.org/2000/svg">
<circle cx="229" cy="181" r="126" stroke="#1C1C1C" stroke-width="2"/>
<circle cx="229" cy="181" r="114.5" stroke="#7E7E7E" stroke-dasharray="4 8"/>
<circle cx="102" cy="181" r="29" fill="#F4F4F3" stroke="#1C1C1C" stroke-width="2"/>
<circle cx="356" cy="181" r="29" fill="#F4F4F3" stroke="#1C1C1C" stroke-width="2"/>
<path d="M349 174H347V178H349V174Z" fill="#212121"/>
<path d="M357.901 177.686L355.072 180.515L356.486 181.929L359.315 179.1L357.901 177.686Z" fill="#212121"/>
<path d="M363 188H359V190H363V188Z" fill="#212121"/>
<path d="M354.914 183.5L353.5 182.086L348.511 187.075C348.347 187.031 348.177 187 348 187C346.897 187 346 187.897 346 189C346 190.103 346.897 191 348 191C349.103 191 350 190.103 350 189C350 188.822 349.969 188.653 349.925 188.489L354.914 183.5Z" fill="#212121"/>
<path d="M367 190H365V189C365 179.626 357.374 172 348 172H347V170H348C358.477 170 367 178.523 367 189V190Z" fill="#212121"/>
<circle cx="229" cy="54" r="29" fill="#F4F4F3" stroke="#1C1C1C" stroke-width="2"/>
<circle cx="229" cy="308" r="29" fill="#F4F4F3" stroke="#1C1C1C" stroke-width="2"/>
<path d="M111 190H93V172" stroke="#212121" stroke-width="2" stroke-miterlimit="10" stroke-linecap="square"/>
<path d="M97 186C106 186 102 173 111 173" stroke="#212121" stroke-width="2" stroke-miterlimit="10" stroke-linecap="square"/>
<path d="M205.164 13V3.44461H206.311V13H205.164ZM208.497 13V3.44461H210.722L214.052 12.2765H214.23V3.44461H215.363V13H213.138L209.821 4.15444H209.63V13H208.497ZM220.742 13.1911C220.05 13.1911 219.431 13.0683 218.885 12.8225C218.339 12.5768 217.907 12.2083 217.589 11.7168C217.279 11.2163 217.125 10.593 217.125 9.84672V9.56006H218.258V9.84672C218.258 10.6385 218.49 11.23 218.954 11.6213C219.418 12.0035 220.014 12.1946 220.742 12.1946C221.488 12.1946 222.057 12.0263 222.448 11.6895C222.84 11.3528 223.035 10.9297 223.035 10.42C223.035 10.0651 222.944 9.78302 222.762 9.57371C222.589 9.3644 222.344 9.19604 222.025 9.06864C221.707 8.93213 221.333 8.81383 220.906 8.71372L220.196 8.53627C219.641 8.39066 219.149 8.2132 218.722 8.0039C218.294 7.79459 217.957 7.52158 217.712 7.18486C217.475 6.83905 217.357 6.39768 217.357 5.86076C217.357 5.32384 217.489 4.85972 217.752 4.4684C218.025 4.07709 218.403 3.77677 218.885 3.56746C219.377 3.35816 219.941 3.2535 220.578 3.2535C221.224 3.2535 221.802 3.36726 222.312 3.59477C222.83 3.81317 223.235 4.14079 223.527 4.57761C223.827 5.00532 223.977 5.5468 223.977 6.20202V6.77535H222.844V6.20202C222.844 5.7379 222.744 5.36479 222.544 5.08268C222.353 4.80056 222.084 4.59126 221.738 4.45475C221.402 4.31824 221.015 4.24999 220.578 4.24999C219.95 4.24999 219.445 4.39105 219.063 4.67316C218.681 4.94617 218.49 5.33749 218.49 5.84711C218.49 6.18382 218.572 6.45683 218.735 6.66614C218.899 6.87545 219.131 7.04836 219.431 7.18486C219.732 7.31227 220.091 7.42602 220.51 7.52613L221.22 7.70358C221.775 7.82189 222.271 7.98569 222.708 8.195C223.154 8.39521 223.508 8.67277 223.772 9.02769C224.036 9.3735 224.168 9.82852 224.168 10.3927C224.168 10.957 224.027 11.4484 223.745 11.867C223.463 12.2856 223.063 12.6132 222.544 12.8498C222.034 13.0774 221.434 13.1911 220.742 13.1911ZM227.868 13V4.48205H224.796V3.44461H232.086V4.48205H229.014V13H227.868ZM231.768 13L234.716 3.44461H236.736L239.685 13H238.497L237.76 10.5839H233.692L232.955 13H231.768ZM233.979 9.54641H237.46L235.822 4.14079H235.631L233.979 9.54641ZM241.117 13V3.44461H242.263V11.9626H247.096V13H241.117ZM248.568 13V3.44461H249.715V11.9626H254.547V13H248.568Z" fill="black"/>
<path d="M199.192 358V348.445H201.376L203.915 357.277H204.092L206.631 348.445H208.815V358H207.71V349.195H207.518L204.993 358H203.014L200.488 349.195H200.297V358H199.192ZM210.252 358L213.2 348.445H215.221L218.169 358H216.981L216.244 355.584H212.176L211.439 358H210.252ZM212.463 354.546H215.944L214.306 349.141H214.115L212.463 354.546ZM219.601 358V348.445H220.747V358H219.601ZM222.933 358V348.445H225.158L228.489 357.277H228.667V348.445H229.8V358H227.575L224.258 349.154H224.066V358H222.933ZM234.346 358V349.482H231.275V348.445H238.564V349.482H235.493V358H234.346ZM238.246 358L241.195 348.445H243.215L246.163 358H244.976L244.239 355.584H240.171L239.434 358H238.246ZM240.457 354.546H243.938L242.3 349.141H242.109L240.457 354.546ZM247.595 358V348.445H248.742V358H247.595ZM250.928 358V348.445H253.153L256.483 357.277H256.661V348.445H257.794V358H255.569L252.252 349.154H252.061V358H250.928Z" fill="black"/>
<path d="M4.87199 185.191C3.73444 185.191 2.82441 184.863 2.14188 184.208C1.46845 183.544 1.13174 182.579 1.13174 181.314V179.13C1.13174 177.865 1.46845 176.905 2.14188 176.25C2.82441 175.586 3.73444 175.254 4.87199 175.254C6.01864 175.254 6.92867 175.586 7.6021 176.25C8.28463 176.905 8.62589 177.865 8.62589 179.13V181.314C8.62589 182.579 8.28463 183.544 7.6021 184.208C6.92867 184.863 6.01864 185.191 4.87199 185.191ZM4.87199 184.167C5.70012 184.167 6.3417 183.922 6.79672 183.43C7.25174 182.93 7.47925 182.238 7.47925 181.355V179.089C7.47925 178.207 7.25174 177.519 6.79672 177.028C6.3417 176.528 5.70012 176.277 4.87199 176.277C4.05296 176.277 3.41593 176.528 2.96091 177.028C2.50589 177.519 2.27838 178.207 2.27838 179.089V181.355C2.27838 182.238 2.50589 182.93 2.96091 183.43C3.41593 183.922 4.05296 184.167 4.87199 184.167ZM10.5362 185V175.445H14.1946C14.7679 175.445 15.2775 175.558 15.7234 175.786C16.1785 176.004 16.5379 176.318 16.8018 176.728C17.0657 177.137 17.1977 177.633 17.1977 178.216V178.393C17.1977 178.966 17.0612 179.462 16.7882 179.881C16.5243 180.291 16.1648 180.605 15.7098 180.823C15.2548 181.041 14.7497 181.151 14.1946 181.151H11.6829V185H10.5362ZM11.6829 180.113H14.0717C14.6814 180.113 15.1638 179.963 15.5187 179.663C15.8736 179.353 16.0511 178.921 16.0511 178.366V178.229C16.0511 177.674 15.8736 177.246 15.5187 176.946C15.1729 176.637 14.6905 176.482 14.0717 176.482H11.6829V180.113ZM21.0558 185V176.482H17.9844V175.445H25.2738V176.482H22.2024V185H21.0558ZM26.7329 185V175.445H27.8796V185H26.7329ZM30.0656 185V175.445H32.2497L34.7887 184.277H34.9661L37.5051 175.445H39.6892V185H38.5835V176.195H38.3924L35.8671 185H33.8877L31.3624 176.195H31.1713V185H30.0656ZM41.8765 185V175.445H43.0232V185H41.8765ZM44.7997 185V183.485L50.1234 176.632V176.468H44.9635V175.445H51.2564V176.96L45.9327 183.812V183.976H51.3656V185H44.7997ZM53.0876 185V175.445H58.971V176.482H54.2342V179.676H58.5887V180.714H54.2342V183.963H59.0392V185H53.0876Z" fill="black"/>
<path d="M398.251 185V175.445H400.435L402.974 184.277H403.152L405.691 175.445H407.875V185H406.769V176.195H406.578L404.053 185H402.074L399.548 176.195H399.357V185H398.251ZM413.53 185.191C412.392 185.191 411.482 184.863 410.799 184.208C410.126 183.544 409.789 182.579 409.789 181.314V179.13C409.789 177.865 410.126 176.905 410.799 176.25C411.482 175.586 412.392 175.254 413.53 175.254C414.676 175.254 415.586 175.586 416.26 176.25C416.942 176.905 417.283 177.865 417.283 179.13V181.314C417.283 182.579 416.942 183.544 416.26 184.208C415.586 184.863 414.676 185.191 413.53 185.191ZM413.53 184.167C414.358 184.167 414.999 183.922 415.454 183.43C415.909 182.93 416.137 182.238 416.137 181.355V179.089C416.137 178.207 415.909 177.519 415.454 177.028C414.999 176.528 414.358 176.277 413.53 176.277C412.71 176.277 412.073 176.528 411.618 177.028C411.163 177.519 410.936 178.207 410.936 179.089V181.355C410.936 182.238 411.163 182.93 411.618 183.43C412.073 183.922 412.71 184.167 413.53 184.167ZM419.194 185V175.445H421.419L424.75 184.277H424.927V175.445H426.06V185H423.835L420.518 176.154H420.327V185H419.194ZM428.259 185V175.445H429.405V185H428.259ZM433.939 185V176.482H430.868V175.445H438.157V176.482H435.086V185H433.939ZM442.657 185.191C441.519 185.191 440.609 184.863 439.927 184.208C439.253 183.544 438.917 182.579 438.917 181.314V179.13C438.917 177.865 439.253 176.905 439.927 176.25C440.609 175.586 441.519 175.254 442.657 175.254C443.804 175.254 444.714 175.586 445.387 176.25C446.07 176.905 446.411 177.865 446.411 179.13V181.314C446.411 182.579 446.07 183.544 445.387 184.208C444.714 184.863 443.804 185.191 442.657 185.191ZM442.657 184.167C443.485 184.167 444.127 183.922 444.582 183.43C445.037 182.93 445.264 182.238 445.264 181.355V179.089C445.264 178.207 445.037 177.519 444.582 177.028C444.127 176.528 443.485 176.277 442.657 176.277C441.838 176.277 441.201 176.528 440.746 177.028C440.291 177.519 440.063 178.207 440.063 179.089V181.355C440.063 182.238 440.291 182.93 440.746 183.43C441.201 183.922 441.838 184.167 442.657 184.167ZM448.321 185V175.445H452.184C452.776 175.445 453.295 175.549 453.74 175.759C454.195 175.959 454.55 176.25 454.805 176.632C455.06 177.005 455.187 177.456 455.187 177.984V178.134C455.187 178.762 455.037 179.258 454.737 179.622C454.437 179.986 454.082 180.231 453.672 180.359V180.55C454 180.559 454.268 180.668 454.478 180.878C454.696 181.078 454.805 181.383 454.805 181.792V185H453.672V181.929C453.672 181.656 453.595 181.446 453.44 181.301C453.295 181.155 453.072 181.082 452.771 181.082H449.468V185H448.321ZM449.468 180.045H452.075C452.703 180.045 453.185 179.895 453.522 179.594C453.868 179.285 454.041 178.857 454.041 178.311V178.216C454.041 177.67 453.872 177.246 453.536 176.946C453.199 176.637 452.712 176.482 452.075 176.482H449.468V180.045Z" fill="black"/>
<path d="M219 58V62C219 62.5304 219.211 63.0391 219.586 63.4142C219.961 63.7893 220.47 64 221 64H237C237.53 64 238.039 63.7893 238.414 63.4142C238.789 63.0391 239 62.5304 239 62V58" stroke="#212121" stroke-width="2" stroke-miterlimit="10" stroke-linecap="square"/>
<path d="M229 43V58" stroke="#212121" stroke-width="2" stroke-miterlimit="10"/>
<path d="M224 53L229 58L234 53" stroke="#212121" stroke-width="2" stroke-miterlimit="10" stroke-linecap="square"/>
<path d="M227.376 306.376L224 303" stroke="#212121" stroke-width="2" stroke-miterlimit="10"/>
<path d="M224 303H221L219 300L221 298L224 300V303Z" stroke="#212121" stroke-width="2" stroke-miterlimit="10" stroke-linecap="square"/>
<path d="M231.357 313.893L234.732 317.268C235.708 318.244 237.291 318.244 238.268 317.268C239.245 316.292 239.244 314.709 238.268 313.732L236.508 311.972" stroke="#212121" stroke-width="2" stroke-miterlimit="10" stroke-linecap="square"/>
<path d="M228.373 305.479L219.936 313.072C218.732 314.155 218.683 316.027 219.828 317.172C220.984 318.328 222.877 318.265 223.954 317.036L231.367 308.571" stroke="#212121" stroke-width="2" stroke-miterlimit="10"/>
<path d="M235.165 304.664L232.337 301.836L235.709 298.464C235.033 298.167 234.287 298 233.502 298C230.464 298 228.002 300.462 228.002 303.5C228.002 306.538 230.464 309 233.502 309C236.54 309 239.002 306.538 239.002 303.5C239.002 302.714 238.835 301.969 238.538 301.293L235.166 304.665L235.165 304.664Z" stroke="#212121" stroke-width="2" stroke-miterlimit="10" stroke-linecap="square"/>
<rect x="212" y="164" width="34" height="34" stroke="#1C1C1C" stroke-width="2"/>
<rect x="217.5" y="169.5" width="23" height="23" stroke="#7E7E7E"/>
<path d="M217.5 156V164" stroke="#1C1C1C" stroke-width="2"/>
<path d="M205 193L213 193" stroke="#1C1C1C" stroke-width="2"/>
<path d="M218 199L218 207" stroke="#1C1C1C" stroke-width="2"/>
<path d="M255 170L247 170" stroke="#1C1C1C" stroke-width="2"/>
<path d="M229 156V164" stroke="#1C1C1C" stroke-width="2"/>
<path d="M205 181L213 181" stroke="#1C1C1C" stroke-width="2"/>
<path d="M229 199L229 207" stroke="#1C1C1C" stroke-width="2"/>
<path d="M255 181L247 181" stroke="#1C1C1C" stroke-width="2"/>
<path d="M240.5 156V164" stroke="#1C1C1C" stroke-width="2"/>
<path d="M205 170L213 170" stroke="#1C1C1C" stroke-width="2"/>
<path d="M240 199L240 207" stroke="#1C1C1C" stroke-width="2"/>
<path d="M255 192L247 192" stroke="#1C1C1C" stroke-width="2"/>
</svg>
