<svg width="108" height="46" viewBox="0 0 108 46" fill="none" xmlns="http://www.w3.org/2000/svg">
<path d="M64.35 33.2432C61.9092 33.2432 59.9754 32.5673 58.5485 31.2154C57.1216 29.8449 56.4081 27.8922 56.4081 25.3576V20.6263C56.4081 18.0916 57.1216 16.1484 58.5485 14.7966C59.9754 13.426 61.9092 12.7407 64.35 12.7407C66.772 12.7407 68.6401 13.4073 69.9544 14.7403C71.2874 16.0545 71.9539 17.8663 71.9539 20.1757V20.3447H68.2928V20.063C68.2928 18.899 67.9642 17.9414 67.3071 17.1904C66.6687 16.4394 65.683 16.0639 64.35 16.0639C63.0357 16.0639 62.0031 16.4676 61.2521 17.2749C60.5011 18.0823 60.1256 19.1806 60.1256 20.57V25.4139C60.1256 26.7845 60.5011 27.8829 61.2521 28.709C62.0031 29.5163 63.0357 29.92 64.35 29.92C65.683 29.92 66.6687 29.5445 67.3071 28.7935C67.9642 28.0237 68.2928 27.0661 68.2928 25.9209V25.4139H71.9539V25.8082C71.9539 28.1176 71.2874 29.9387 69.9544 31.2718C68.6401 32.586 66.772 33.2432 64.35 33.2432ZM81.8265 33.2432C80.3057 33.2432 78.9633 32.9709 77.7992 32.4264C76.6352 31.882 75.7246 31.1028 75.0674 30.0889C74.4103 29.0751 74.0817 27.8547 74.0817 26.4278V25.6392H77.7429V26.4278C77.7429 27.6106 78.109 28.5024 78.8412 29.1032C79.5735 29.6853 80.5685 29.9763 81.8265 29.9763C83.1032 29.9763 84.0513 29.7228 84.6709 29.2159C85.3093 28.709 85.6284 28.0612 85.6284 27.2727C85.6284 26.7282 85.4688 26.287 85.1497 25.949C84.8493 25.6111 84.3987 25.3388 83.7979 25.1323C83.2158 24.907 82.5024 24.7005 81.6575 24.5127L81.0098 24.3719C79.6579 24.0715 78.4939 23.696 77.5176 23.2454C76.5601 22.776 75.8184 22.1658 75.2927 21.4148C74.7858 20.6638 74.5323 19.6875 74.5323 18.4859C74.5323 17.2843 74.814 16.2611 75.3772 15.4162C75.9593 14.5525 76.7666 13.8954 77.7992 13.4448C78.8506 12.9754 80.0804 12.7407 81.4885 12.7407C82.8967 12.7407 84.1452 12.9848 85.2342 13.473C86.3419 13.9423 87.2055 14.6558 87.8251 15.6133C88.4635 16.5521 88.7827 17.7349 88.7827 19.1618V20.0067H85.1215V19.1618C85.1215 18.4108 84.9713 17.81 84.6709 17.3594C84.3893 16.89 83.9762 16.5521 83.4317 16.3456C82.8873 16.1203 82.2395 16.0076 81.4885 16.0076C80.362 16.0076 79.5265 16.2235 78.982 16.6553C78.4563 17.0684 78.1935 17.641 78.1935 18.3733C78.1935 18.8614 78.3155 19.2745 78.5596 19.6124C78.8225 19.9504 79.2073 20.232 79.7143 20.4573C80.2212 20.6826 80.8689 20.8797 81.6575 21.0487L82.3052 21.1895C83.7134 21.4899 84.9338 21.8748 85.9664 22.3442C87.0178 22.8136 87.8345 23.4332 88.4165 24.2029C88.9986 24.9727 89.2896 25.9584 89.2896 27.16C89.2896 28.3616 88.9798 29.4224 88.3602 30.3424C87.7594 31.2436 86.8958 31.9571 85.7692 32.4828C84.6615 32.9897 83.3473 33.2432 81.8265 33.2432ZM98.9056 33.2432C97.3848 33.2432 96.0424 32.9709 94.8783 32.4264C93.7143 31.882 92.8037 31.1028 92.1465 30.0889C91.4894 29.0751 91.1609 27.8547 91.1609 26.4278V25.6392H94.822V26.4278C94.822 27.6106 95.1881 28.5024 95.9203 29.1032C96.6526 29.6853 97.6477 29.9763 98.9056 29.9763C100.182 29.9763 101.13 29.7228 101.75 29.2159C102.388 28.709 102.708 28.0612 102.708 27.2727C102.708 26.7282 102.548 26.287 102.229 25.949C101.928 25.6111 101.478 25.3388 100.877 25.1323C100.295 24.907 99.5815 24.7005 98.7366 24.5127L98.0889 24.3719C96.7371 24.0715 95.573 23.696 94.5967 23.2454C93.6392 22.776 92.8976 22.1658 92.3718 21.4148C91.8649 20.6638 91.6115 19.6875 91.6115 18.4859C91.6115 17.2843 91.8931 16.2611 92.4563 15.4162C93.0384 14.5525 93.8457 13.8954 94.8783 13.4448C95.9297 12.9754 97.1595 12.7407 98.5676 12.7407C99.9758 12.7407 101.224 12.9848 102.313 13.473C103.421 13.9423 104.285 14.6558 104.904 15.6133C105.543 16.5521 105.862 17.7349 105.862 19.1618V20.0067H102.201V19.1618C102.201 18.4108 102.05 17.81 101.75 17.3594C101.468 16.89 101.055 16.5521 100.511 16.3456C99.9664 16.1203 99.3186 16.0076 98.5676 16.0076C97.4411 16.0076 96.6056 16.2235 96.0612 16.6553C95.5355 17.0684 95.2726 17.641 95.2726 18.3733C95.2726 18.8614 95.3946 19.2745 95.6387 19.6124C95.9016 19.9504 96.2865 20.232 96.7934 20.4573C97.3003 20.6826 97.9481 20.8797 98.7366 21.0487L99.3844 21.1895C100.792 21.4899 102.013 21.8748 103.045 22.3442C104.097 22.8136 104.914 23.4332 105.496 24.2029C106.078 24.9727 106.369 25.9584 106.369 27.16C106.369 28.3616 106.059 29.4224 105.439 30.3424C104.839 31.2436 103.975 31.9571 102.848 32.4828C101.741 32.9897 100.426 33.2432 98.9056 33.2432Z" fill="black"/>
</svg>
