<svg width="108" height="47" viewBox="0 0 108 47" fill="none" xmlns="http://www.w3.org/2000/svg">
<path d="M64.35 34.1631C61.9092 34.1631 59.9754 33.4872 58.5485 32.1354C57.1216 30.7648 56.4081 28.8122 56.4081 26.2775V21.5462C56.4081 19.0116 57.1216 17.0683 58.5485 15.7165C59.9754 14.346 61.9092 13.6607 64.35 13.6607C66.772 13.6607 68.6401 14.3272 69.9544 15.6602C71.2874 16.9745 71.9539 18.7863 71.9539 21.0956V21.2646H68.2928V20.983C68.2928 19.8189 67.9642 18.8614 67.3071 18.1104C66.6687 17.3594 65.683 16.9839 64.35 16.9839C63.0357 16.9839 62.0031 17.3875 61.2521 18.1948C60.5011 19.0022 60.1256 20.1005 60.1256 21.4899V26.3339C60.1256 27.7044 60.5011 28.8028 61.2521 29.6289C62.0031 30.4362 63.0357 30.8399 64.35 30.8399C65.683 30.8399 66.6687 30.4644 67.3071 29.7134C67.9642 28.9436 68.2928 27.9861 68.2928 26.8408V26.3339H71.9539V26.7281C71.9539 29.0375 71.2874 30.8587 69.9544 32.1917C68.6401 33.5059 66.772 34.1631 64.35 34.1631ZM81.8265 34.1631C80.3057 34.1631 78.9633 33.8908 77.7992 33.3464C76.6352 32.8019 75.7246 32.0227 75.0674 31.0089C74.4103 29.995 74.0817 28.7746 74.0817 27.3477V26.5592H77.7429V27.3477C77.7429 28.5305 78.109 29.4224 78.8412 30.0232C79.5735 30.6052 80.5685 30.8962 81.8265 30.8962C83.1032 30.8962 84.0513 30.6427 84.6709 30.1358C85.3093 29.6289 85.6284 28.9811 85.6284 28.1926C85.6284 27.6481 85.4688 27.2069 85.1497 26.8689C84.8493 26.531 84.3987 26.2588 83.7979 26.0522C83.2158 25.8269 82.5024 25.6204 81.6575 25.4327L81.0098 25.2918C79.6579 24.9914 78.4939 24.6159 77.5176 24.1653C76.5601 23.696 75.8184 23.0858 75.2927 22.3348C74.7858 21.5838 74.5323 20.6074 74.5323 19.4058C74.5323 18.2042 74.814 17.181 75.3772 16.3361C75.9593 15.4725 76.7666 14.8153 77.7992 14.3647C78.8506 13.8953 80.0804 13.6607 81.4885 13.6607C82.8967 13.6607 84.1452 13.9047 85.2342 14.3929C86.3419 14.8623 87.2055 15.5757 87.8251 16.5333C88.4635 17.472 88.7827 18.6548 88.7827 20.0817V20.9266H85.1215V20.0817C85.1215 19.3307 84.9713 18.7299 84.6709 18.2793C84.3893 17.81 83.9762 17.472 83.4317 17.2655C82.8873 17.0402 82.2395 16.9275 81.4885 16.9275C80.362 16.9275 79.5265 17.1434 78.982 17.5753C78.4563 17.9883 78.1935 18.561 78.1935 19.2932C78.1935 19.7813 78.3155 20.1944 78.5596 20.5323C78.8225 20.8703 79.2073 21.1519 79.7143 21.3772C80.2212 21.6025 80.8689 21.7997 81.6575 21.9686L82.3052 22.1095C83.7134 22.4099 84.9338 22.7947 85.9664 23.2641C87.0178 23.7335 87.8345 24.3531 88.4165 25.1229C88.9986 25.8926 89.2896 26.8783 89.2896 28.0799C89.2896 29.2815 88.9798 30.3423 88.3602 31.2623C87.7594 32.1635 86.8958 32.877 85.7692 33.4027C84.6615 33.9096 83.3473 34.1631 81.8265 34.1631ZM98.9056 34.1631C97.3848 34.1631 96.0424 33.8908 94.8783 33.3464C93.7143 32.8019 92.8037 32.0227 92.1465 31.0089C91.4894 29.995 91.1609 28.7746 91.1609 27.3477V26.5592H94.822V27.3477C94.822 28.5305 95.1881 29.4224 95.9203 30.0232C96.6526 30.6052 97.6477 30.8962 98.9056 30.8962C100.182 30.8962 101.13 30.6427 101.75 30.1358C102.388 29.6289 102.708 28.9811 102.708 28.1926C102.708 27.6481 102.548 27.2069 102.229 26.8689C101.928 26.531 101.478 26.2588 100.877 26.0522C100.295 25.8269 99.5815 25.6204 98.7366 25.4327L98.0889 25.2918C96.7371 24.9914 95.573 24.6159 94.5967 24.1653C93.6392 23.696 92.8976 23.0858 92.3718 22.3348C91.8649 21.5838 91.6115 20.6074 91.6115 19.4058C91.6115 18.2042 91.8931 17.181 92.4563 16.3361C93.0384 15.4725 93.8457 14.8153 94.8783 14.3647C95.9297 13.8953 97.1595 13.6607 98.5676 13.6607C99.9758 13.6607 101.224 13.9047 102.313 14.3929C103.421 14.8623 104.285 15.5757 104.904 16.5333C105.543 17.472 105.862 18.6548 105.862 20.0817V20.9266H102.201V20.0817C102.201 19.3307 102.05 18.7299 101.75 18.2793C101.468 17.81 101.055 17.472 100.511 17.2655C99.9664 17.0402 99.3186 16.9275 98.5676 16.9275C97.4411 16.9275 96.6056 17.1434 96.0612 17.5753C95.5355 17.9883 95.2726 18.561 95.2726 19.2932C95.2726 19.7813 95.3946 20.1944 95.6387 20.5323C95.9016 20.8703 96.2865 21.1519 96.7934 21.3772C97.3003 21.6025 97.9481 21.7997 98.7366 21.9686L99.3844 22.1095C100.792 22.4099 102.013 22.7947 103.045 23.2641C104.097 23.7335 104.914 24.3531 105.496 25.1229C106.078 25.8926 106.369 26.8783 106.369 28.0799C106.369 29.2815 106.059 30.3423 105.439 31.2623C104.839 32.1635 103.975 32.877 102.848 33.4027C101.741 33.9096 100.426 34.1631 98.9056 34.1631Z" fill="black"/>
<rect x="7.01953" y="7.93994" width="30.12" height="30.12" stroke="#1C1C1C" stroke-width="3"/>
<rect x="14" y="14.9199" width="16" height="16" stroke="#1C1C1C" stroke-width="2"/>
<path d="M11.5 0V7.36" stroke="#1C1C1C" stroke-width="3"/>
<path d="M0 34.04L7.36 34.04" stroke="#1C1C1C" stroke-width="3"/>
<path d="M11.9609 39.5598L11.9609 46.9198" stroke="#1C1C1C" stroke-width="3"/>
<path d="M46 12.8799L38.64 12.8799" stroke="#1C1C1C" stroke-width="3"/>
<path d="M22.0801 0V7.36" stroke="#1C1C1C" stroke-width="3"/>
<path d="M0 23L7.36 23" stroke="#1C1C1C" stroke-width="3"/>
<path d="M22.0801 39.5598L22.0801 46.9198" stroke="#1C1C1C" stroke-width="3"/>
<path d="M46 23L38.64 23" stroke="#1C1C1C" stroke-width="3"/>
<path d="M32.6602 0V7.36" stroke="#1C1C1C" stroke-width="3"/>
<path d="M0 12.8799L7.36 12.8799" stroke="#1C1C1C" stroke-width="3"/>
<path d="M32.1992 39.5598L32.1992 46.9198" stroke="#1C1C1C" stroke-width="3"/>
<path d="M46 33.1199L38.64 33.1199" stroke="#1C1C1C" stroke-width="3"/>
</svg>
